<svg xmlns="http://www.w3.org/2000/svg" viewBox="0 0 296.8 126.35"><defs><style>.cls-1{fill:#448060;}.cls-2{fill:#86bfa2;}.cls-3{fill:#3b966b;}.cls-4{fill:#2d6d4d;}.cls-5{fill:#9fa0a0;}.cls-6{fill:#b5b5b6;}</style></defs><g id="레이어_2" data-name="레이어 2"><g id="Layer_1" data-name="Layer 1"><path class="cls-1" d="M244.63,119.7H236a111.08,111.08,0,0,0-222.15,0H5.23a119.7,119.7,0,0,1,239.4,0Z"/><path class="cls-2" d="M54.57,109.41H13.87a4.32,4.32,0,1,1,0-8.63h40.7a4.32,4.32,0,0,1,0,8.63Z"/><path class="cls-2" d="M60.22,85.06H19.51a4.31,4.31,0,0,1,0-8.62H60.22a4.31,4.31,0,0,1,0,8.62Z"/><path class="cls-2" d="M73.06,61.44H32.35a4.32,4.32,0,0,1,0-8.63H73.06a4.32,4.32,0,0,1,0,8.63Z"/><path class="cls-2" d="M90.41,38.64H49.71a4.32,4.32,0,0,1,0-8.63h40.7a4.32,4.32,0,1,1,0,8.63Z"/><path class="cls-2" d="M121.85,19.74H81.15a4.32,4.32,0,1,1,0-8.63h40.7a4.32,4.32,0,0,1,0,8.63Z"/><path class="cls-2" d="M156.56,8.63h-40.7a4.32,4.32,0,1,1,0-8.63h40.7a4.32,4.32,0,0,1,0,8.63Z"/><path class="cls-3" d="M217,17.69h-40.7a4.32,4.32,0,1,1,0-8.63H217a4.32,4.32,0,0,1,0,8.63Z"/><path class="cls-3" d="M242.23,35.76h-40.7a4.31,4.31,0,0,1,0-8.62h40.7a4.31,4.31,0,1,1,0,8.62Z"/><path class="cls-3" d="M262.58,58.36h-40.7a4.32,4.32,0,0,1,0-8.63h40.7a4.32,4.32,0,1,1,0,8.63Z"/><path class="cls-3" d="M277.37,85.06h-40.7a4.31,4.31,0,1,1,0-8.62h40.7a4.31,4.31,0,1,1,0,8.62Z"/><path class="cls-3" d="M282.93,109.41h-40.7a4.32,4.32,0,0,1,0-8.63h40.7a4.32,4.32,0,1,1,0,8.63Z"/><path class="cls-4" d="M291.41,119.7h-8.63a111.08,111.08,0,0,0-222.15,0H52a119.71,119.71,0,0,1,239.41,0Z"/><path class="cls-5" d="M6.83,117.93h5.44a6.83,6.83,0,0,1,6.83,6.83v1.59a0,0,0,0,1,0,0H0a0,0,0,0,1,0,0v-1.59A6.83,6.83,0,0,1,6.83,117.93Z"/><path class="cls-5" d="M238.28,117.93h5.44a6.83,6.83,0,0,1,6.83,6.83v1.59a0,0,0,0,1,0,0h-19.1a0,0,0,0,1,0,0v-1.59a6.83,6.83,0,0,1,6.83-6.83Z"/><path class="cls-6" d="M54.18,117.93h5.44a6.83,6.83,0,0,1,6.83,6.83v1.59a0,0,0,0,1,0,0H47.35a0,0,0,0,1,0,0v-1.59A6.83,6.83,0,0,1,54.18,117.93Z"/><path class="cls-6" d="M284.53,117.93H290a6.83,6.83,0,0,1,6.83,6.83v1.59a0,0,0,0,1,0,0H277.7a0,0,0,0,1,0,0v-1.59A6.83,6.83,0,0,1,284.53,117.93Z"/></g></g></svg>